<svg width="41" height="41" viewBox="0 0 41 41" fill="none" xmlns="http://www.w3.org/2000/svg">
<path d="M20.3736 16.8057C22.2193 16.8057 23.7428 18.3291 23.7428 20.1748C23.7428 22.0498 22.2193 23.5439 20.3736 23.5439C18.4986 23.5439 17.0045 22.0498 17.0045 20.1748C17.0045 18.3291 18.4986 16.8057 20.3736 16.8057ZM20.3736 22.3721C21.5748 22.3721 22.5416 21.4053 22.5416 20.1748C22.5416 18.9736 21.5748 18.0068 20.3736 18.0068C19.1432 18.0068 18.1764 18.9736 18.1764 20.1748C18.1764 21.4053 19.1725 22.3721 20.3736 22.3721ZM24.651 16.6885C24.651 17.1279 24.2994 17.4795 23.86 17.4795C23.4205 17.4795 23.0689 17.1279 23.0689 16.6885C23.0689 16.249 23.4205 15.8975 23.86 15.8975C24.2994 15.8975 24.651 16.249 24.651 16.6885ZM26.8775 17.4795C26.9361 18.5635 26.9361 21.8154 26.8775 22.8994C26.8189 23.9541 26.5846 24.8623 25.8228 25.6533C25.0611 26.415 24.1236 26.6494 23.0689 26.708C21.985 26.7666 18.733 26.7666 17.649 26.708C16.5943 26.6494 15.6861 26.415 14.8951 25.6533C14.1334 24.8623 13.899 23.9541 13.8404 22.8994C13.7818 21.8154 13.7818 18.5635 13.8404 17.4795C13.899 16.4248 14.1334 15.4873 14.8951 14.7256C15.6861 13.9639 16.5943 13.7295 17.649 13.6709C18.733 13.6123 21.985 13.6123 23.0689 13.6709C24.1236 13.7295 25.0611 13.9639 25.8228 14.7256C26.5846 15.4873 26.8189 16.4248 26.8775 17.4795ZM25.4713 24.042C25.8228 23.1924 25.735 21.1416 25.735 20.1748C25.735 19.2373 25.8228 17.1865 25.4713 16.3076C25.2369 15.751 24.7975 15.2822 24.2408 15.0771C23.3619 14.7256 21.3111 14.8135 20.3736 14.8135C19.4068 14.8135 17.356 14.7256 16.5064 15.0771C15.9205 15.3115 15.481 15.751 15.2467 16.3076C14.8951 17.1865 14.983 19.2373 14.983 20.1748C14.983 21.1416 14.8951 23.1924 15.2467 24.042C15.481 24.6279 15.9205 25.0674 16.5064 25.3018C17.356 25.6533 19.4068 25.5654 20.3736 25.5654C21.3111 25.5654 23.3619 25.6533 24.2408 25.3018C24.7975 25.0674 25.2662 24.6279 25.4713 24.042Z" fill="white"/>
</svg>
