<svg width="41" height="41" viewBox="0 0 41 41" fill="none" xmlns="http://www.w3.org/2000/svg">
<path d="M16.7408 25.7998H14.0162V17.04H16.7408V25.7998ZM15.3639 15.8682C14.5142 15.8682 13.8111 15.1357 13.8111 14.2568C13.8111 13.4072 14.5142 12.7041 15.3639 12.7041C16.2428 12.7041 16.9459 13.4072 16.9459 14.2568C16.9459 15.1357 16.2428 15.8682 15.3639 15.8682ZM26.9068 25.7998H24.2115V21.5518C24.2115 20.5264 24.1822 19.2373 22.776 19.2373C21.3697 19.2373 21.1646 20.3213 21.1646 21.4639V25.7998H18.44V17.04H21.0475V18.2412H21.0767C21.4576 17.5674 22.3365 16.835 23.6549 16.835C26.4088 16.835 26.9361 18.6514 26.9361 20.9951V25.7998H26.9068Z" fill="white"/>
</svg>
