<svg width="16" height="13" viewBox="0 0 16 13" fill="none" xmlns="http://www.w3.org/2000/svg">
<path d="M14.3262 3.12793C14.3262 3.27441 14.3262 3.3916 14.3262 3.53809C14.3262 7.61035 11.25 12.2686 5.5957 12.2686C3.83789 12.2686 2.22656 11.7705 0.878906 10.8916C1.11328 10.9209 1.34766 10.9502 1.61133 10.9502C3.04688 10.9502 4.36523 10.4521 5.41992 9.63184C4.07227 9.60254 2.92969 8.72363 2.54883 7.49316C2.75391 7.52246 2.92969 7.55176 3.13477 7.55176C3.39844 7.55176 3.69141 7.49316 3.92578 7.43457C2.51953 7.1416 1.46484 5.91113 1.46484 4.41699V4.3877C1.875 4.62207 2.37305 4.73926 2.87109 4.76855C2.02148 4.21191 1.49414 3.27441 1.49414 2.21973C1.49414 1.63379 1.64062 1.10645 1.9043 0.666992C3.42773 2.5127 5.71289 3.74316 8.26172 3.88965C8.20312 3.65527 8.17383 3.4209 8.17383 3.18652C8.17383 1.4873 9.55078 0.110352 11.25 0.110352C12.1289 0.110352 12.9199 0.461914 13.5059 1.07715C14.1797 0.930664 14.8535 0.666992 15.4395 0.31543C15.2051 1.04785 14.7363 1.63379 14.0918 2.01465C14.707 1.95605 15.3223 1.78027 15.8496 1.5459C15.4395 2.16113 14.9121 2.68848 14.3262 3.12793Z" fill="white"/>
</svg>
